<svg id="facebook_1_" data-name="facebook (1)" xmlns="http://www.w3.org/2000/svg" width="28.132" height="28" viewBox="0 0 28.132 28">
  <path id="Path_862" data-name="Path 862" d="M24.616,0H3.517A3.512,3.512,0,0,0,0,3.5v21A3.512,3.512,0,0,0,3.517,28h21.1a3.512,3.512,0,0,0,3.517-3.5V3.5A3.512,3.512,0,0,0,24.616,0Z" fill="#1976d2"/>
  <path id="Path_863" data-name="Path 863" d="M19.187,11.791h-4.4V8.275c0-.971.788-.879,1.758-.879h1.758V3H14.791A5.275,5.275,0,0,0,9.517,8.275v3.517H6v4.4H9.517v9.67h5.275v-9.67h2.637Z" transform="translate(4.55 2.143)" fill="#fafafa" fill-rule="evenodd"/>
</svg>
