<svg xmlns="http://www.w3.org/2000/svg" width="33" height="33" viewBox="0 0 33 33">
  <g id="Component_7_3" data-name="Component 7 – 3" transform="translate(0.286)">
    <rect id="Rectangle_11" data-name="Rectangle 11" width="33" height="33" transform="translate(-0.286)" fill="rgba(255,255,255,0)"/>
    <g id="logo-instagram" transform="translate(5.529 5.529)">
      <circle id="Ellipse_1" data-name="Ellipse 1" cx="1.327" cy="1.327" r="1.327" transform="translate(15.461 4.053)" fill="#fff"/>
      <path id="Path_6" data-name="Path 6" d="M9.529,15.058a5.529,5.529,0,1,1,5.529-5.529A5.535,5.535,0,0,1,9.529,15.058Zm0-8.294a2.765,2.765,0,1,0,2.765,2.765A2.767,2.767,0,0,0,9.529,6.765Z" transform="translate(1.529 1.529)" fill="#fff"/>
      <path id="Path_7" data-name="Path 7" d="M16.587,22.117H5.529A5.825,5.825,0,0,1,0,16.587V5.529A5.825,5.825,0,0,1,5.529,0H16.587a5.825,5.825,0,0,1,5.529,5.529V16.587A5.825,5.825,0,0,1,16.587,22.117ZM5.529,2.765A3.13,3.13,0,0,0,2.765,5.529V16.587a3.084,3.084,0,0,0,2.765,2.765H16.587a3.13,3.13,0,0,0,2.765-2.765V5.529a3.13,3.13,0,0,0-2.765-2.765Z" fill="#fff"/>
    </g>
  </g>
</svg>
