<svg xmlns="http://www.w3.org/2000/svg" width="33" height="33" viewBox="0 0 33 33">
  <g id="Component_6_3" data-name="Component 6 – 3" transform="translate(-0.238)">
    <rect id="Rectangle_10" data-name="Rectangle 10" width="33" height="33" transform="translate(0.238)" fill="rgba(255,255,255,0)"/>
    <g id="logo-pinterest" transform="translate(5.529 5.529)">
      <path id="Path_8" data-name="Path 8" d="M11.058,0A11.091,11.091,0,0,0,0,11.058,10.834,10.834,0,0,0,7.05,21.287a12.226,12.226,0,0,1,0-3.179c.138-.829,1.244-5.529,1.244-5.529a3.668,3.668,0,0,1-.276-1.521c0-1.521.968-2.765,2.073-2.765a1.344,1.344,0,0,1,1.382,1.521,16.56,16.56,0,0,1-.968,3.732,1.555,1.555,0,0,0,1.659,1.935c1.935,0,3.456-2.073,3.456-5.114a4.431,4.431,0,0,0-4.562-4.562,4.754,4.754,0,0,0-4.976,4.838,4.446,4.446,0,0,0,.829,2.488v.553a7.012,7.012,0,0,0-.276,1.244c0,.138-.138.276-.415.138a4.944,4.944,0,0,1-2.212-4.285c0-3.456,2.488-6.635,7.326-6.635a6.444,6.444,0,0,1,6.773,6.358c0,3.87-2.35,6.911-5.806,6.911a2.763,2.763,0,0,1-2.488-1.244s-.553,2.073-.691,2.626a14.159,14.159,0,0,1-1.382,2.9,13.633,13.633,0,0,0,3.317.415A11.058,11.058,0,1,0,11.058,0Z" fill="#fff"/>
    </g>
  </g>
</svg>
