<svg id="twitter_1_" data-name="twitter (1)" xmlns="http://www.w3.org/2000/svg" width="28.053" height="28.053" viewBox="0 0 28.053 28.053">
  <rect id="Rectangle_121" data-name="Rectangle 121" width="28.053" height="28.053" rx="5" fill="#0a93e2"/>
  <path id="Path_864" data-name="Path 864" d="M17.927,3.574A6.738,6.738,0,0,1,15.99,4.1a3.39,3.39,0,0,0,1.483-1.865,6.776,6.776,0,0,1-2.142.818A3.376,3.376,0,0,0,9.585,6.134a9.573,9.573,0,0,1-6.95-3.524,3.377,3.377,0,0,0,1.043,4.5A3.354,3.354,0,0,1,2.15,6.69v.043a3.374,3.374,0,0,0,2.705,3.306,3.37,3.37,0,0,1-1.523.059,3.377,3.377,0,0,0,3.151,2.342,6.763,6.763,0,0,1-4.189,1.443,6.7,6.7,0,0,1-.8-.047,9.543,9.543,0,0,0,5.168,1.515,9.531,9.531,0,0,0,9.6-9.6c0-.146,0-.291-.01-.436a6.848,6.848,0,0,0,1.682-1.745Z" transform="translate(4.633 6.196)" fill="#fff" fill-rule="evenodd"/>
</svg>
