<svg xmlns="http://www.w3.org/2000/svg" width="33" height="33" viewBox="0 0 33 33">
  <g id="Component_8_3" data-name="Component 8 – 3" transform="translate(-0.476)">
    <rect id="Rectangle_12" data-name="Rectangle 12" width="33" height="33" transform="translate(0.476)" fill="rgba(255,255,255,0)"/>
    <g id="logo-twitter" transform="translate(5.529 8.294)">
      <path id="Path_5" data-name="Path 5" d="M22.117,3.573a8.18,8.18,0,0,1-2.626.691,3.908,3.908,0,0,0,1.935-2.488,9.069,9.069,0,0,1-2.9,1.106A4.827,4.827,0,0,0,15.205,1.5a4.576,4.576,0,0,0-4.423,4.562,2.05,2.05,0,0,0,.138.968,12.719,12.719,0,0,1-9.4-4.7,4.236,4.236,0,0,0-.553,2.35A4.536,4.536,0,0,0,3.041,8.411,5.793,5.793,0,0,1,.968,7.858h0a4.462,4.462,0,0,0,3.594,4.423,3.827,3.827,0,0,1-1.244.138,1.753,1.753,0,0,1-.829-.138,4.479,4.479,0,0,0,4.285,3.179A8.79,8.79,0,0,1,1.106,17.4H0A13.487,13.487,0,0,0,6.911,19.47,12.8,12.8,0,0,0,19.767,6.614V6.062A8.036,8.036,0,0,0,22.117,3.573Z" transform="translate(0 -1.5)" fill="#fff"/>
    </g>
  </g>
</svg>
